<svg xmlns="http://www.w3.org/2000/svg" viewBox="0 0 48 48">
  <path d="M 7 33 L 41 33 L 41 37 C 41 39.209 39.209 41 37 41 L 11 41 C 8.791 41 7 39.209 7 37 L 7 33 Z" style="stroke-width: 1; fill: rgb(2, 118, 201);"></path>
  <path d="M 11 7 L 37 7 C 39.209 7 41 8.791 41 11 L 41 33 C 41 35.209 39.209 37 37 37 L 11 37 C 8.791 37 7 35.209 7 33 L 7 11 C 7 8.791 8.791 7 11 7 Z M 16.956 13.023 L 16.956 30.977 C 16.956 31.325 17.239 31.608 17.587 31.608 L 30.413 31.608 C 30.761 31.608 31.044 31.325 31.044 30.977 L 31.044 28.413 C 31.044 28.064 30.761 27.781 30.413 27.781 L 20.784 27.781 L 20.784 23.914 L 30.413 23.914 C 30.761 23.914 31.044 23.631 31.044 23.283 L 31.044 20.717 C 31.044 20.369 30.761 20.086 30.413 20.086 L 20.784 20.086 L 20.784 16.219 L 30.413 16.219 C 30.761 16.219 31.044 15.936 31.044 15.587 L 31.044 13.023 C 31.044 12.675 30.761 12.392 30.413 12.392 L 17.587 12.392 C 17.239 12.392 16.956 12.675 16.956 13.023 Z" style="fill: rgb(101, 191, 254);"></path>
</svg>