<?xml version="1.0" encoding="UTF-8" standalone="no"?>
<svg
   width="48"
   height="48"
   viewBox="0 0 48 48"
   fill="none"
   version="1.1"
   id="svg4"
   xml:space="preserve"
   xmlns:xlink="http://www.w3.org/1999/xlink"
   xmlns="http://www.w3.org/2000/svg"
   xmlns:svg="http://www.w3.org/2000/svg"><circle
     cx="24"
     cy="24"
     r="17"
     fill="url(#paint0_linear_3314_2)"
     id="circle1"
     clip-path="url(#clipPath21)" /><circle
     fill="#cc00ff"
     id="circle3"
     style="stroke-width:0.863806"
     r="6.910429"
     cy="19.209814"
     cx="19.209814"
     clip-path="url(#clipPath20)" /><path
     d="m 21.644361,12.742259 c 2.614822,0.984736 4.475714,3.508339 4.475886,6.467557 0,3.816456 -3.093974,6.910343 -6.910431,6.910431 -1.981307,0 -3.766703,-0.834608 -5.026734,-2.17048 0.757557,0.285397 1.577999,0.443733 2.435323,0.443733 3.816285,-8.4e-5 6.910171,-3.09423 6.910429,-6.910428 0,-1.835582 -0.716955,-3.503415 -1.884473,-4.740813 z"
     fill="#ffdf8e"
     id="path3"
     style="stroke-width:0.863806"
     clip-path="url(#clipPath19)" /><defs
     id="defs4"><linearGradient
       id="paint0_linear_3314_2"
       x1="24.000006"
       y1="7.0000014"
       x2="24.000006"
       y2="41.000011"
       gradientUnits="userSpaceOnUse"><stop
         stop-color="#CC00FF"
         id="stop3"
         offset="0.33333334"
         style="stop-color:#ab88b8;stop-opacity:1;" /><stop
         offset="1"
         stop-color="#FFDF8E"
         id="stop4"
         style="stop-color:#ff4b4b;stop-opacity:1;" /></linearGradient><mask
       maskUnits="userSpaceOnUse"
       id="mask10"><g
         id="g11"><circle
           cx="24"
           cy="24"
           r="17"
           fill="#000000"
           id="circle10" /></g></mask><clipPath
       clipPathUnits="userSpaceOnUse"
       id="clipPath17"><circle
         cx="24"
         cy="24"
         r="17"
         fill="url(#paint0_linear_3314_2)"
         id="circle17"
         clip-path="none"
         style="fill:url(#linearGradient17)" /></clipPath><linearGradient
       xlink:href="#paint0_linear_3314_2"
       id="linearGradient17"
       gradientUnits="userSpaceOnUse"
       x1="24.000006"
       y1="7.0000014"
       x2="24.000006"
       y2="41.000011" /><clipPath
       clipPathUnits="userSpaceOnUse"
       id="clipPath18"><circle
         cx="24"
         cy="24"
         r="17"
         fill="url(#paint0_linear_3314_2)"
         id="circle18"
         clip-path="none"
         style="fill:url(#linearGradient18)" /></clipPath><linearGradient
       xlink:href="#paint0_linear_3314_2"
       id="linearGradient18"
       gradientUnits="userSpaceOnUse"
       x1="24.000006"
       y1="7.0000014"
       x2="24.000006"
       y2="41.000011" /><clipPath
       clipPathUnits="userSpaceOnUse"
       id="clipPath19"><circle
         cx="24"
         cy="24"
         r="17"
         fill="url(#paint0_linear_3314_2)"
         id="circle19"
         clip-path="none"
         style="fill:url(#linearGradient19)" /></clipPath><linearGradient
       xlink:href="#paint0_linear_3314_2"
       id="linearGradient19"
       gradientUnits="userSpaceOnUse"
       x1="24.000006"
       y1="7.0000014"
       x2="24.000006"
       y2="41.000011" /><clipPath
       clipPathUnits="userSpaceOnUse"
       id="clipPath20"><circle
         cx="24"
         cy="24"
         r="17"
         fill="url(#paint0_linear_3314_2)"
         id="circle20"
         clip-path="none"
         style="fill:url(#linearGradient20)" /></clipPath><linearGradient
       xlink:href="#paint0_linear_3314_2"
       id="linearGradient20"
       gradientUnits="userSpaceOnUse"
       x1="24.000006"
       y1="7.0000014"
       x2="24.000006"
       y2="41.000011" /><clipPath
       clipPathUnits="userSpaceOnUse"
       id="clipPath21"><circle
         cx="24"
         cy="24"
         r="17"
         fill="url(#paint0_linear_3314_2)"
         id="circle21"
         clip-path="none"
         style="fill:url(#linearGradient21)" /></clipPath><linearGradient
       xlink:href="#paint0_linear_3314_2"
       id="linearGradient21"
       gradientUnits="userSpaceOnUse"
       x1="24.000006"
       y1="7.0000014"
       x2="24.000006"
       y2="41.000011" /></defs><path
     fill-rule="evenodd"
     clip-rule="evenodd"
     d="m 34.710776,28.516016 c 0,0.0945 0.04732,0.183055 0.126101,0.235215 1.076432,0.713162 1.791512,1.973033 1.791512,3.408254 0,0.566348 -0.510163,0.958806 -1.076511,0.958806 H 24.115355 c -0.662127,0 -1.282505,-0.427779 -1.293301,-1.089818 -3.31e-4,-0.0202 -4.96e-4,-0.04046 -4.96e-4,-0.06075 0,-2.118122 1.802942,-3.83523 4.026993,-3.83523 0.514074,0 0.999576,-0.358786 1.181749,-0.839493 0.493672,-1.302636 1.753085,-2.228691 3.228768,-2.228691 1.906338,0 3.451707,1.545368 3.451707,3.451706 z"
     fill="#d1e0ee"
     id="path4"
     style="stroke-width:0.383523"
     clip-path="url(#clipPath18)"
     transform="matrix(0.79333831,0,0,0.79333831,6.0863218,6.2357665)" /><path
     fill-rule="evenodd"
     clip-rule="evenodd"
     d="m 38.559208,20.559211 c 0,0.04269 0.02137,0.08269 0.05696,0.106254 0.486248,0.322149 0.809262,0.891258 0.809262,1.539576 0,0.255832 -0.23045,0.433113 -0.48628,0.433113 h -5.166109 c -0.299095,0 -0.579333,-0.193238 -0.584211,-0.492293 -1.48e-4,-0.0091 -2.23e-4,-0.01828 -2.23e-4,-0.02745 0,-0.956798 0.814426,-1.732451 1.819074,-1.732451 0.232217,0 0.451529,-0.162071 0.53382,-0.379215 C 35.764502,19.418318 36.333404,19 37,19 c 0.861131,0 1.559206,0.698074 1.559206,1.559206 z"
     fill="#d1e0ee"
     id="path5"
     style="stroke-width:0.173245"
     clip-path="url(#clipPath17)"
     transform="matrix(0.74995081,0,0,0.74995081,7.8506601,6.6507823)" /></svg>
