<svg width="200" height="214" viewBox="0 0 200 214" fill="none" xmlns="http://www.w3.org/2000/svg">
<path d="M52.9032 67.188L95.6991 42.8036C97.0068 42.0598 98.4902 41.6682 100 41.6682C101.51 41.6682 102.994 42.0598 104.301 42.8036L147.112 67.188C148.428 67.9373 149.923 68.3295 151.443 68.3246C152.964 68.3196 154.456 67.9177 155.768 67.1598L175.065 56.0162C176.364 55.2663 177.44 54.1938 178.186 52.9059C178.932 51.6181 179.322 50.1599 179.317 48.6771C179.312 47.1943 178.912 45.7388 178.157 44.4559C177.402 43.173 176.319 42.1078 175.015 41.3665L104.301 1.13532C102.994 0.39156 101.51 0 100 0C98.4902 0 97.0068 0.39156 95.6991 1.13532L24.9891 41.3665C23.6863 42.108 22.6037 43.1732 21.8494 44.4557C21.0951 45.7382 20.6955 47.1932 20.6904 48.6754C20.6854 50.1576 21.075 51.6152 21.8205 52.9027C22.566 54.1902 23.6412 55.2625 24.9389 56.0127L44.2437 67.1633C45.5559 67.9213 47.0488 68.323 48.57 68.3274C50.0913 68.3317 51.5865 67.9385 52.9032 67.188Z" fill="black"/>
<path d="M163.799 95.3967V144.194C163.799 145.686 163.399 147.151 162.64 148.442C161.881 149.732 160.79 150.803 159.477 151.545L116.867 175.615C115.553 176.358 114.462 177.428 113.703 178.719C112.944 180.01 112.544 181.475 112.544 182.967V204.685C112.545 206.173 112.942 207.634 113.697 208.922C114.453 210.21 115.539 211.279 116.846 212.023C118.154 212.767 119.637 213.158 121.147 213.158C122.657 213.158 124.14 212.766 125.448 212.023L195.699 172.028C197.006 171.284 198.092 170.215 198.847 168.927C199.602 167.639 200 166.178 200 164.691V84.6486C200.002 83.1603 199.605 81.6979 198.851 80.4084C198.097 79.1189 197.011 78.0479 195.703 77.303C194.395 76.5582 192.911 76.1659 191.4 76.1655C189.889 76.1651 188.405 76.5566 187.097 77.3008L168.1 88.0489C166.791 88.7934 165.704 89.8646 164.949 91.1545C164.194 92.4445 163.797 93.9076 163.799 95.3967Z" fill="black"/>
<path d="M36.2009 95.3967V144.194C36.2009 145.686 36.6005 147.151 37.3595 148.442C38.1185 149.732 39.2099 150.803 40.5235 151.545L83.133 175.615C84.4466 176.358 85.538 177.428 86.297 178.719C87.056 180.01 87.4557 181.475 87.4557 182.967V204.685C87.4554 206.173 87.0577 207.634 86.3025 208.922C85.5474 210.21 84.4615 211.279 83.1538 212.023C81.8462 212.767 80.3629 213.158 78.853 213.158C77.3432 213.158 75.8599 212.766 74.5524 212.023L4.3011 172.028C2.99365 171.284 1.90788 170.215 1.15289 168.927C0.397907 167.639 0.000294807 166.178 4.81818e-06 164.691V84.6486C-0.00159396 83.1603 0.394717 81.6979 1.14906 80.4084C1.90341 79.1189 2.98919 78.0479 4.29716 77.303C5.60513 76.5582 7.08915 76.1659 8.59992 76.1655C10.1107 76.1651 11.5949 76.5566 12.9033 77.3008L31.8998 88.0489C33.2088 88.7934 34.2956 89.8646 35.0507 91.1545C35.8058 92.4445 36.2025 93.9076 36.2009 95.3967Z" fill="black"/>
<path fill-rule="evenodd" clip-rule="evenodd" d="M116.271 96.4669C117.641 94.0068 118.421 91.1735 118.421 88.158V75.7714C118.421 73.1654 116.308 71.0527 113.702 71.0527H110.526V65.1019C110.526 63.6485 109.348 62.4703 107.895 62.4703H94.7368C93.2834 62.4703 92.1052 63.6485 92.1052 65.1019V71.0527H88.9291C86.3231 71.0527 84.2104 73.1654 84.2104 75.7714V88.158C84.2104 91.1738 84.9909 94.0074 86.361 96.4677L63.9917 141.206C62.0418 145.106 63.6225 149.848 67.5223 151.798C71.4222 153.748 76.1643 152.167 78.1142 148.268L83.9616 136.573C84.044 136.593 84.1272 136.612 84.2113 136.632C87.4609 137.397 92.0262 138.158 97.3682 138.158C103.354 138.158 110.346 137.193 117.495 134.221L124.518 148.268C126.468 152.167 131.21 153.748 135.11 151.798C139.01 149.848 140.59 145.106 138.641 141.206L131.004 125.933C132.191 124.929 133.368 123.849 134.53 122.688C147.14 110.077 148.904 96.2192 147.276 85.6416C146.613 81.3322 142.582 78.3762 138.273 79.0391C133.964 79.7021 131.008 83.7331 131.671 88.0425C132.663 94.4951 131.827 102.885 123.653 111.231L116.271 96.4669ZM102.976 105.184L110.408 120.048C105.797 121.799 101.316 122.368 97.3682 122.368C95.1326 122.368 93.077 122.183 91.2878 121.92L99.6561 105.184C100.202 105.236 100.756 105.263 101.316 105.263C101.876 105.263 102.43 105.236 102.976 105.184ZM107.895 85.5264C107.895 89.1599 104.949 92.1054 101.316 92.1054C97.6823 92.1054 94.7368 89.1599 94.7368 85.5264C94.7368 81.893 97.6823 78.9475 101.316 78.9475C104.949 78.9475 107.895 81.893 107.895 85.5264Z" fill="black"/>
</svg>
